<?xml version="1.0" encoding="iso-8859-1"?>
<!-- Generator: Adobe Illustrator 19.0.0, SVG Export Plug-In . SVG Version: 6.00 Build 0)  -->
<svg version="1.1" id="Capa_1" xmlns="http://www.w3.org/2000/svg" xmlns:xlink="http://www.w3.org/1999/xlink" x="0px" y="0px"
	 viewBox="0 0 491.086 491.086" style="enable-background:new 0 0 491.086 491.086;" xml:space="preserve">
<g>
	<g>
		<path d="M412.215,343.11c-5.92-4.976-13.68-7.064-21.312-5.752l-158.64,27.592l-45.064-45.064
			c-1.496-1.504-3.536-2.344-5.656-2.344h-80c0-4.424-3.584-8-8-8h-32h-56v16h48v112h-48v16h56h32c4.416,0,8-3.576,8-8h22.112
			l85.528,42.768c3.696,1.848,7.704,2.776,11.696,2.776c4.552,0,9.096-1.192,13.168-3.576l174.512-101.8
			c8-4.672,12.976-13.32,12.976-22.584C421.535,355.39,418.143,348.094,412.215,343.11z M85.543,437.542h-16v-112h16V437.542z
			 M400.511,371.886l-174.52,101.8c-2.976,1.728-6.584,1.84-9.656,0.312l-87.216-43.608c-1.104-0.56-2.336-0.848-3.576-0.848h-24
			v-96h76.688l63.032,63.032c2.72,2.728,4.28,6.488,4.28,10.344c0,8.064-6.56,14.624-14.632,14.624c-3.904,0-7.584-1.52-10.344-4.28
			l-41.368-41.376l-11.312,11.312l41.376,41.376c5.784,5.784,13.472,8.968,21.648,8.968c16.896,0,30.632-13.744,30.632-30.624
			c0-8.184-3.184-15.872-8.976-21.656l-6.472-6.48l147.56-25.664c2.96-0.52,5.968,0.296,8.272,2.232
			c2.296,1.936,3.616,4.768,3.616,7.768C405.543,366.71,403.615,370.07,400.511,371.886z"/>
	</g>
</g>
<g>
	<g>
		<path d="M485.543,53.542v-16h-56h-32c-4.416,0-8,3.576-8,8h-22.112L281.903,2.774c-7.912-3.96-17.208-3.672-24.872,0.808
			L82.519,105.374c-8,4.672-12.976,13.32-12.976,22.584c0,7.736,3.392,15.032,9.32,20.016c4.76,4,10.704,6.144,16.816,6.144
			c1.496,0,3-0.136,4.496-0.392l158.656-27.592l45.064,45.064c1.488,1.504,3.528,2.344,5.648,2.344h80c0,4.424,3.584,8,8,8h32h56
			v-16h-48v-112H485.543z M389.543,157.542h-76.688L249.823,94.51c-2.72-2.728-4.28-6.488-4.28-10.344
			c0-8.064,6.56-14.624,14.632-14.624c3.904,0,7.584,1.52,10.344,4.28l41.368,41.376l11.312-11.312L281.823,62.51
			c-5.784-5.784-13.472-8.968-21.648-8.968c-16.896,0-30.632,13.744-30.632,30.624c0,8.184,3.184,15.872,8.976,21.656l6.472,6.48
			l-147.56,25.664c-2.944,0.504-5.976-0.296-8.272-2.232c-2.296-1.936-3.616-4.768-3.616-7.768c0-3.592,1.928-6.952,5.032-8.768
			l174.52-101.8c2.968-1.736,6.576-1.848,9.656-0.312l87.216,43.608c1.104,0.56,2.336,0.848,3.576,0.848h24V157.542z
			 M421.543,165.542h-16v-112h16V165.542z"/>
	</g>
</g>
<g>
	<g>
		<path d="M139.455,173.902c-3.192,4.72-6.08,9.68-8.592,14.728l14.328,7.128c2.192-4.424,4.72-8.76,7.52-12.904L139.455,173.902z"
			/>
	</g>
</g>
<g>
	<g>
		<path d="M124.295,204.382c-1.816,5.392-3.288,10.944-4.376,16.496l15.704,3.064c0.952-4.848,2.24-9.704,3.832-14.416
			L124.295,204.382z"/>
	</g>
</g>
<g>
	<g>
		<path d="M133.543,245.534c0-2.28,0.072-4.544,0.2-6.8l-15.976-0.936c-0.144,2.568-0.224,5.144-0.224,7.728
			c0,3.128,0.112,6.232,0.328,9.304l15.96-1.144C133.639,250.998,133.543,248.278,133.543,245.534z"/>
	</g>
</g>
<g>
	<g>
		<path d="M135.895,268.462l-15.672,3.264c1.16,5.552,2.704,11.08,4.592,16.432l15.088-5.328
			C138.255,278.158,136.903,273.326,135.895,268.462z"/>
	</g>
</g>
<g>
	<g>
		<path d="M373.207,236.206l-15.96,1.144c0.2,2.696,0.296,5.432,0.296,8.184c0,2.272-0.072,4.528-0.2,6.776l15.968,0.936
			c0.152-2.552,0.232-5.128,0.232-7.712C373.543,242.39,373.431,239.286,373.207,236.206z"/>
	</g>
</g>
<g>
	<g>
		<path d="M355.471,267.102c-0.944,4.848-2.24,9.704-3.832,14.424l15.16,5.128c1.824-5.392,3.296-10.936,4.376-16.488
			L355.471,267.102z"/>
	</g>
</g>
<g>
	<g>
		<path d="M366.263,202.886l-15.088,5.328c1.648,4.664,3,9.496,4.016,14.368l15.664-3.264
			C369.687,213.75,368.143,208.214,366.263,202.886z"/>
	</g>
</g>
<g>
	<g>
		<path d="M345.911,295.286c-2.2,4.424-4.728,8.76-7.52,12.904l13.256,8.952c3.192-4.72,6.08-9.68,8.592-14.728L345.911,295.286z"/>
	</g>
</g>
<g>
	<g>
		<path d="M301.543,189.542h-112c-13.232,0-24,10.768-24,24v64c0,13.232,10.768,24,24,24h112c13.232,0,24-10.768,24-24v-64
			C325.543,200.31,314.775,189.542,301.543,189.542z M309.543,277.542c0,4.416-3.592,8-8,8h-112c-4.408,0-8-3.584-8-8v-40h128
			V277.542z M309.543,221.542h-128v-8c0-4.416,3.592-8,8-8h112c4.408,0,8,3.584,8,8V221.542z"/>
	</g>
</g>
<g>
</g>
<g>
</g>
<g>
</g>
<g>
</g>
<g>
</g>
<g>
</g>
<g>
</g>
<g>
</g>
<g>
</g>
<g>
</g>
<g>
</g>
<g>
</g>
<g>
</g>
<g>
</g>
<g>
</g>
</svg>
